<?xml version="1.0" standalone="no"?>
<!DOCTYPE svg PUBLIC "-//W3C//DTD SVG 20010904//EN"
 "http://www.w3.org/TR/2001/REC-SVG-20010904/DTD/svg10.dtd">
<svg version="1.0" xmlns="http://www.w3.org/2000/svg"
 width="200.000000pt" height="200.000000pt" viewBox="0 0 200.000000 200.000000"
 preserveAspectRatio="xMidYMid meet">
<metadata>
Created by potrace 1.15, written by Peter Selinger 2001-2017
</metadata>
<g transform="translate(0.000000,200.000000) scale(0.100000,-0.100000)"
fill="#000000" stroke="none">
<path d="M981 1509 c-75 -14 -361 -165 -361 -190 0 -21 52 -1 164 60 59 32
140 69 178 82 67 21 72 21 126 6 31 -9 119 -46 196 -82 76 -36 140 -64 143
-62 7 7 -223 138 -285 162 -73 29 -107 34 -161 24z"/>
<path d="M370 1231 l-55 -6 55 -7 c81 -11 493 -22 524 -14 14 3 26 13 26 21 0
13 -35 15 -247 13 -137 -1 -273 -4 -303 -7z"/>
<path d="M574 1142 c-6 -4 -16 -17 -23 -29 -17 -33 2 -69 49 -93 44 -22 48
-31 25 -50 -12 -10 -24 -11 -50 -2 -33 10 -35 9 -35 -13 0 -33 58 -45 107 -21
31 15 34 20 31 53 -2 31 -10 42 -43 64 -52 35 -52 54 -1 54 41 0 60 20 35 36
-17 11 -80 11 -95 1z"/>
<path d="M747 1093 c-11 -3 -16 -10 -13 -20 3 -8 6 -16 6 -17 0 -1 15 0 34 2
24 3 35 -1 39 -12 5 -13 -1 -16 -26 -16 -65 0 -100 -56 -59 -93 22 -20 45 -21
74 -6 14 8 23 8 31 0 22 -22 27 -10 27 63 0 66 -3 77 -22 90 -22 16 -54 19
-91 9z"/>
<path d="M910 1031 c0 -58 4 -75 20 -91 22 -22 42 -25 71 -9 15 8 24 7 35 -2
26 -21 35 4 32 87 -3 73 -5 79 -25 82 -22 3 -23 0 -23 -56 0 -62 -16 -90 -44
-79 -11 4 -16 25 -18 69 -3 57 -5 63 -25 66 -22 3 -23 0 -23 -67z"/>
<path d="M470 770 c0 -91 3 -110 15 -110 11 0 15 12 15 45 0 44 1 45 33 45 48
0 77 24 77 65 0 44 -29 65 -92 65 l-48 0 0 -110z"/>
<path d="M676 807 c-46 -46 -27 -143 29 -148 63 -5 95 21 95 80 0 47 -24 79
-67 87 -26 5 -37 1 -57 -19z"/>
</g>
</svg>
